<mxfile host="app.diagrams.net" agent="Mozilla/5.0 (Macintosh; Intel Mac OS X 10_15_7) AppleWebKit/537.36 (KHTML, like Gecko) Chrome/131.0.0.0 Safari/537.36" version="25.0.3">
  <diagram name="第 1 页" id="U48u9RCpKufwf_eayoM6">
    <mxGraphModel dx="936" dy="619" grid="1" gridSize="10" guides="1" tooltips="1" connect="1" arrows="1" fold="1" page="1" pageScale="1" pageWidth="827" pageHeight="1169" math="0" shadow="0">
      <root>
        <mxCell id="0" />
        <mxCell id="1" parent="0" />
        <mxCell id="t6eAjr5Hyk1gsOzArES5-7" value="" style="edgeStyle=orthogonalEdgeStyle;rounded=0;orthogonalLoop=1;jettySize=auto;html=1;" edge="1" parent="1" source="t6eAjr5Hyk1gsOzArES5-5" target="t6eAjr5Hyk1gsOzArES5-6">
          <mxGeometry relative="1" as="geometry" />
        </mxCell>
        <mxCell id="t6eAjr5Hyk1gsOzArES5-5" value="开始" style="ellipse;whiteSpace=wrap;html=1;aspect=fixed;" vertex="1" parent="1">
          <mxGeometry x="260" y="100" width="80" height="80" as="geometry" />
        </mxCell>
        <mxCell id="t6eAjr5Hyk1gsOzArES5-9" value="" style="edgeStyle=orthogonalEdgeStyle;rounded=0;orthogonalLoop=1;jettySize=auto;html=1;" edge="1" parent="1" source="t6eAjr5Hyk1gsOzArES5-6" target="t6eAjr5Hyk1gsOzArES5-8">
          <mxGeometry relative="1" as="geometry" />
        </mxCell>
        <mxCell id="t6eAjr5Hyk1gsOzArES5-6" value="查询需要补偿的数据&lt;div&gt;&lt;br&gt;&lt;/div&gt;&lt;div&gt;sync_status=fail&lt;/div&gt;&lt;div&gt;error_count&amp;lt;5&lt;/div&gt;&lt;div&gt;create_time在三小时之内且根据参数指数避让&lt;/div&gt;&lt;div&gt;&lt;br&gt;&lt;/div&gt;" style="whiteSpace=wrap;html=1;" vertex="1" parent="1">
          <mxGeometry x="240" y="220" width="120" height="130" as="geometry" />
        </mxCell>
        <mxCell id="t6eAjr5Hyk1gsOzArES5-11" value="" style="edgeStyle=orthogonalEdgeStyle;rounded=0;orthogonalLoop=1;jettySize=auto;html=1;" edge="1" parent="1" source="t6eAjr5Hyk1gsOzArES5-8" target="t6eAjr5Hyk1gsOzArES5-10">
          <mxGeometry relative="1" as="geometry" />
        </mxCell>
        <mxCell id="t6eAjr5Hyk1gsOzArES5-8" value="批量更新失败次数" style="whiteSpace=wrap;html=1;" vertex="1" parent="1">
          <mxGeometry x="240" y="410" width="120" height="60" as="geometry" />
        </mxCell>
        <mxCell id="t6eAjr5Hyk1gsOzArES5-13" value="" style="edgeStyle=orthogonalEdgeStyle;rounded=0;orthogonalLoop=1;jettySize=auto;html=1;" edge="1" parent="1" source="t6eAjr5Hyk1gsOzArES5-10" target="t6eAjr5Hyk1gsOzArES5-12">
          <mxGeometry relative="1" as="geometry" />
        </mxCell>
        <mxCell id="t6eAjr5Hyk1gsOzArES5-10" value="批量更新失败次数" style="whiteSpace=wrap;html=1;" vertex="1" parent="1">
          <mxGeometry x="240" y="550" width="120" height="60" as="geometry" />
        </mxCell>
        <mxCell id="t6eAjr5Hyk1gsOzArES5-15" value="" style="edgeStyle=orthogonalEdgeStyle;rounded=0;orthogonalLoop=1;jettySize=auto;html=1;" edge="1" parent="1" source="t6eAjr5Hyk1gsOzArES5-12" target="t6eAjr5Hyk1gsOzArES5-14">
          <mxGeometry relative="1" as="geometry" />
        </mxCell>
        <mxCell id="t6eAjr5Hyk1gsOzArES5-12" value="库存计算、同步&lt;div&gt;+&lt;/div&gt;&lt;div&gt;设置同步成功状态&lt;/div&gt;" style="whiteSpace=wrap;html=1;" vertex="1" parent="1">
          <mxGeometry x="240" y="690" width="120" height="60" as="geometry" />
        </mxCell>
        <mxCell id="t6eAjr5Hyk1gsOzArES5-17" value="" style="edgeStyle=orthogonalEdgeStyle;rounded=0;orthogonalLoop=1;jettySize=auto;html=1;" edge="1" parent="1" source="t6eAjr5Hyk1gsOzArES5-14" target="t6eAjr5Hyk1gsOzArES5-16">
          <mxGeometry relative="1" as="geometry" />
        </mxCell>
        <mxCell id="t6eAjr5Hyk1gsOzArES5-14" value="&lt;div&gt;查询syncstatus = succcess &amp;amp; errorcount &amp;gt; 0的数据&lt;/div&gt;&lt;div&gt;&lt;br&gt;&lt;/div&gt;设置error count为null" style="whiteSpace=wrap;html=1;" vertex="1" parent="1">
          <mxGeometry x="240" y="810" width="120" height="80" as="geometry" />
        </mxCell>
        <mxCell id="t6eAjr5Hyk1gsOzArES5-16" value="结束" style="ellipse;whiteSpace=wrap;html=1;" vertex="1" parent="1">
          <mxGeometry x="260" y="960" width="80" height="80" as="geometry" />
        </mxCell>
        <mxCell id="t6eAjr5Hyk1gsOzArES5-18" value="&lt;div style=&quot;&quot;&gt;&lt;span style=&quot;background-color: initial;&quot;&gt;First Time: 2^1 * 300 = 10min&lt;/span&gt;&lt;/div&gt;&lt;div&gt;&lt;br&gt;&lt;div&gt;Second: 2^2 * 300 = 20&lt;span style=&quot;background-color: initial;&quot;&gt;min&lt;/span&gt;&lt;/div&gt;&lt;div&gt;&lt;span style=&quot;background-color: initial;&quot;&gt;&lt;br&gt;&lt;/span&gt;&lt;/div&gt;&lt;div&gt;&lt;span style=&quot;background-color: initial;&quot;&gt;Third: 2^3 * 300 = 40min&lt;/span&gt;&lt;/div&gt;&lt;div&gt;&lt;span style=&quot;background-color: initial;&quot;&gt;&lt;br&gt;&lt;/span&gt;&lt;/div&gt;&lt;div&gt;Forth: 2^4 * 300 = 80min&lt;/div&gt;&lt;/div&gt;" style="whiteSpace=wrap;html=1;align=left;" vertex="1" parent="1">
          <mxGeometry x="460" y="180" width="170" height="140" as="geometry" />
        </mxCell>
      </root>
    </mxGraphModel>
  </diagram>
</mxfile>
